<svg width="44" height="50" viewBox="0 0 44 50" fill="none" xmlns="http://www.w3.org/2000/svg">
<path d="M22 11.9922C14.8598 11.9922 9.05536 17.7637 9.04554 24.8633C9.04554 27.2949 9.73304 29.668 11.0295 31.709L11.3339 32.1973L10.0277 36.9434L14.9286 35.6641L15.4 35.9473C17.3839 37.1191 19.6625 37.7441 21.9902 37.7441H22C29.1304 37.7441 35.092 31.9727 35.092 24.873C35.092 21.4355 33.5991 18.2031 31.1536 15.7715C28.6982 13.3301 25.4571 11.9922 22 11.9922ZM29.6116 30.3906C29.2875 31.2988 27.7357 32.1191 26.9893 32.2266C25.7518 32.4121 24.7893 32.3145 22.3241 31.2598C18.425 29.5801 15.8714 25.6738 15.675 25.4199C15.4786 25.166 14.0839 23.3203 14.0839 21.416C14.0839 19.5117 15.0857 18.5742 15.4491 18.1836C15.8027 17.793 16.225 17.6953 16.4902 17.6953C16.7455 17.6953 17.0107 17.6953 17.2366 17.7051C17.4723 17.7148 17.7964 17.6172 18.1107 18.3691C18.4348 19.1406 19.2107 21.0449 19.3089 21.2402C19.4071 21.4355 19.4759 21.6602 19.3384 21.9141C18.592 23.3984 17.7964 23.3398 18.1991 24.0234C19.7018 26.5918 21.2045 27.4805 23.4929 28.623C23.8857 28.8184 24.1116 28.7891 24.3375 28.5254C24.5634 28.2715 25.3098 27.3926 25.5652 27.0117C25.8205 26.6211 26.0857 26.6895 26.4393 26.8164C26.7929 26.9434 28.708 27.8809 29.1009 28.0762C29.4937 28.2715 29.7491 28.3691 29.8473 28.5254C29.9357 28.7109 29.9357 29.4922 29.6116 30.3906ZM39.2857 3.125H4.71429C2.11161 3.125 0 5.22461 0 7.8125V42.1875C0 44.7754 2.11161 46.875 4.71429 46.875H39.2857C41.8884 46.875 44 44.7754 44 42.1875V7.8125C44 5.22461 41.8884 3.125 39.2857 3.125ZM21.9902 40.3516C19.3777 40.3516 16.8143 39.6973 14.5455 38.4668L6.28571 40.625L8.49554 32.5977C7.13036 30.2539 6.41339 27.5879 6.41339 24.8535C6.42321 16.3184 13.4062 9.375 21.9902 9.375C26.1545 9.375 30.0634 10.9863 33.0098 13.916C35.9464 16.8457 37.7143 20.7324 37.7143 24.873C37.7143 33.4082 30.5741 40.3516 21.9902 40.3516Z" fill="#03D23D"/>
</svg>
