<svg xmlns="http://www.w3.org/2000/svg" viewBox="0 0 86.84 119.41"><defs><style>.cls-1{fill:none;stroke-width:2.94px;}.cls-1,.cls-2,.cls-6{stroke:#1d1d1b;}.cls-1,.cls-2,.cls-3,.cls-4,.cls-5,.cls-6,.cls-7{stroke-miterlimit:10;}.cls-2,.cls-4,.cls-5,.cls-6,.cls-8{fill:#1d1d1b;}.cls-2{stroke-width:0.59px;}.cls-3,.cls-7{fill:#fff;}.cls-3,.cls-4,.cls-5,.cls-7{stroke:#fff;}.cls-3{stroke-width:0.6px;}.cls-4{stroke-width:0.19px;}.cls-5{stroke-width:0.15px;}.cls-6{stroke-width:0.49px;}.cls-7{stroke-width:0.45px;}</style></defs><g id="Layer_2" data-name="Layer 2"><g id="Layer_1-2" data-name="Layer 1"><path class="cls-1" d="M60.35,27.5c0,14.39-7.58,26-16.93,26s-16.93-11.65-16.93-26,7.57-26,16.93-26S60.35,13.12,60.35,27.5Z"/><path class="cls-2" d="M86.52,118.81l-86.21.3Q3.16,73.32,6,27.5H26.49c0,14.39,7.57,26,16.93,26s16.93-11.65,16.93-26H80.22Z"/><path class="cls-2" d="M60.35,27.5c0,14.39-7.58,26-16.93,26s-16.93-11.65-16.93-26Z"/><rect class="cls-3" x="27.99" y="42.28" width="32.94" height="62.06" rx="5"/><circle class="cls-4" cx="37.95" cy="46.03" r="0.74"/><ellipse class="cls-5" cx="44.73" cy="43.93" rx="0.62" ry="0.56"/><rect class="cls-6" x="44.21" y="42.2" width="0.45" height="7.66" rx="0.23" transform="translate(-1.6 90.47) rotate(-90)"/><rect class="cls-7" x="27.29" y="63.72" width="0.9" height="3.33" rx="0.45"/><rect class="cls-7" x="27.29" y="58.31" width="0.9" height="3.33" rx="0.45"/><rect class="cls-7" x="27.29" y="52.91" width="0.9" height="3.33" rx="0.45"/><rect class="cls-7" x="60.71" y="58.31" width="0.9" height="3.33" rx="0.45"/><circle class="cls-6" cx="44.73" cy="100.71" r="2.23"/><rect class="cls-8" x="28.74" y="49.13" width="31.44" height="48.36"/></g></g></svg>