<svg width="19" height="19" viewBox="0 0 19 19" fill="none" xmlns="http://www.w3.org/2000/svg">
<g clip-path="url(#clip0_31_105)">
<path d="M14.0945 0.386475H4.31463C1.93173 0.386475 0 2.3182 0 4.70111V14.4809C0 16.8638 1.93173 18.7956 4.31463 18.7956H14.0945C16.4774 18.7956 18.4091 16.8638 18.4091 14.4809V4.70111C18.4091 2.3182 16.4774 0.386475 14.0945 0.386475Z" fill="white"/>
<path d="M2.99424 14.9869H5.28229V9.43019L2.01367 6.97876V14.0064C2.01367 14.5489 2.45333 14.9869 2.99424 14.9869Z" fill="#4285F4"/>
<path d="M13.127 14.987H15.4151C15.9576 14.987 16.3956 14.5473 16.3956 14.0064V6.97876L13.127 9.43026" fill="#34A853"/>
<path d="M13.127 5.18119V9.43045L16.3956 6.97902V5.6714C16.3956 4.45877 15.0114 3.76742 14.0422 4.49473" fill="#FBBC04"/>
<path d="M5.28223 9.43024V5.18105L9.20459 8.12269L13.1269 5.18091V9.43017L9.20459 12.372" fill="#EA4335"/>
<path d="M2.01367 5.6714V6.97888L5.28229 9.43038V5.18119L4.36709 4.49473C3.3963 3.76742 2.01367 4.45877 2.01367 5.6714Z" fill="#C5221F"/>
</g>
<defs>
<clipPath id="clip0_31_105">
<rect width="18.4091" height="18.4091" fill="white" transform="translate(0 0.386475)"/>
</clipPath>
</defs>
</svg>
