<svg width="44" height="50" viewBox="0 0 44 50" fill="none" xmlns="http://www.w3.org/2000/svg">
<g clip-path="url(#clip0_74_63)">
<path d="M32.6076 18.0036C35.8179 20.3045 39.7507 21.6583 43.9983 21.6583V13.4634C43.1943 13.4638 42.3926 13.3796 41.6061 13.2124V19.6629C37.3589 19.6629 33.4266 18.3093 30.2156 16.0086V32.7321C30.2156 41.0981 23.4513 47.8795 15.1078 47.8795C11.9946 47.8795 9.10094 46.9359 6.69727 45.3174C9.44073 48.13 13.2667 49.8746 17.4993 49.8746C25.8435 49.8746 32.6079 43.0933 32.6079 34.7269V18.0036H32.6076ZM35.5587 9.73603C33.918 7.93896 32.8407 5.61655 32.6076 3.04896V1.995H30.3407C30.9114 5.25827 32.8578 8.0462 35.5587 9.73603ZM11.9745 38.8978C11.0578 37.6929 10.5623 36.2186 10.5646 34.7029C10.5646 30.8767 13.6585 27.7743 17.4757 27.7743C18.187 27.7739 18.8941 27.8834 19.5721 28.099V19.7209C18.7797 19.6121 17.9802 19.5657 17.181 19.5828V26.1038C16.5026 25.8882 15.7952 25.7788 15.0836 25.7793C11.2666 25.7793 8.17281 28.8814 8.17281 32.7081C8.17281 35.414 9.71917 37.7565 11.9745 38.8978Z" fill="#FF004F"/>
<path d="M30.2167 16.0084C33.4279 18.3091 37.3599 19.6628 41.6072 19.6628V13.2122C39.2364 12.7059 37.1376 11.4638 35.5596 9.73603C32.8586 8.04603 30.9125 5.2581 30.3419 1.995H24.3876V34.7265C24.374 38.5424 21.2854 41.6321 17.4765 41.6321C15.2322 41.6321 13.2381 40.5595 11.9753 38.8976C9.7203 37.7565 8.17377 35.4138 8.17377 32.7083C8.17377 28.8819 11.2675 25.7795 15.0845 25.7795C15.8158 25.7795 16.5207 25.8936 17.1819 26.104V19.5829C8.98484 19.7528 2.39258 26.4679 2.39258 34.7267C2.39258 38.8495 4.03416 42.5869 6.69856 45.3178C9.10224 46.9359 11.9958 47.8798 15.1091 47.8798C23.4528 47.8798 30.2169 41.0979 30.2169 32.7321L30.2167 16.0084Z" fill="black"/>
<path d="M41.6066 13.2121V11.4683C39.4687 11.4714 37.373 10.8711 35.559 9.73604C37.1647 11.4985 39.279 12.7138 41.6066 13.2124M30.3411 1.99483C30.2867 1.68303 30.245 1.36915 30.216 1.05397V0H21.9945V32.7319C21.9814 36.5474 18.8928 39.6371 15.0838 39.6371C14.0039 39.6387 12.9388 39.3855 11.9745 38.8979C13.2373 40.5595 15.2314 41.6319 17.4757 41.6319C21.2845 41.6319 24.3734 38.5426 24.3868 34.7267V1.995L30.3411 1.99483ZM17.1817 19.5828V17.726C16.4946 17.6319 15.8021 17.5848 15.1087 17.585C6.76414 17.585 0 24.3667 0 32.7319C0 37.9766 2.65839 42.5986 6.69814 45.3174C4.03373 42.5867 2.39216 38.8491 2.39216 34.7266C2.39216 26.4679 8.98425 19.7526 17.1817 19.5828Z" fill="#00F2EA"/>
</g>
<defs>
<clipPath id="clip0_74_63">
<rect width="44" height="50" fill="white"/>
</clipPath>
</defs>
</svg>
