<svg xmlns="http://www.w3.org/2000/svg" viewBox="0 0 192.94 271.48"><defs><style>.cls-1{fill:none;stroke-width:5.41px;}.cls-1,.cls-2,.cls-6{stroke:#1d1d1b;}.cls-1,.cls-2,.cls-3,.cls-4,.cls-5,.cls-6,.cls-7{stroke-miterlimit:10;}.cls-2,.cls-4,.cls-5,.cls-6,.cls-8,.cls-9{fill:#1d1d1b;}.cls-2{stroke-width:1.08px;}.cls-3,.cls-7{fill:#fff;}.cls-3,.cls-4,.cls-5,.cls-7{stroke:#fff;}.cls-3{stroke-width:1.11px;}.cls-4{stroke-width:0.34px;}.cls-5{stroke-width:0.27px;}.cls-6{stroke-width:0.9px;}.cls-7{stroke-width:0.84px;}.cls-9{font-size:23.82px;font-family:LEMONMILK-Bold, LEMON MILK;font-weight:700;}</style></defs><g id="Layer_2" data-name="Layer 2"><g id="Layer_1-2" data-name="Layer 1"><path class="cls-1" d="M126.38,50.62c0,26.47-14,47.92-31.18,47.92S64,77.09,64,50.62,78,2.71,95.2,2.71,126.38,24.16,126.38,50.62Z"/><path class="cls-2" d="M174.55,218.69l-158.68.55q5.24-84.3,10.5-168.62H64C64,77.09,78,98.54,95.2,98.54s31.18-21.45,31.18-47.92h36.56Z"/><path class="cls-2" d="M126.38,50.62c0,26.47-14,47.92-31.18,47.92S64,77.09,64,50.62Z"/><rect class="cls-3" x="66.81" y="77.82" width="60.64" height="114.22" rx="9.21"/><circle class="cls-4" cx="85.14" cy="84.73" r="1.37"/><ellipse class="cls-5" cx="97.61" cy="80.85" rx="1.14" ry="1.03"/><rect class="cls-6" x="96.67" y="77.68" width="0.83" height="14.1" rx="0.41" transform="translate(12.35 181.82) rotate(-90)"/><rect class="cls-7" x="65.52" y="117.29" width="1.66" height="6.13" rx="0.83"/><rect class="cls-7" x="65.52" y="107.33" width="1.66" height="6.13" rx="0.83"/><rect class="cls-7" x="65.52" y="97.38" width="1.66" height="6.13" rx="0.83"/><rect class="cls-7" x="127.03" y="107.33" width="1.66" height="6.13" rx="0.83"/><circle class="cls-6" cx="97.61" cy="185.38" r="4.11"/><rect class="cls-8" x="68.19" y="90.42" width="57.87" height="89.02"/><text class="cls-9" transform="translate(0 264.29)">SURREAL TECH</text></g></g></svg>