<svg width="51" height="51" viewBox="0 0 51 51" fill="none" xmlns="http://www.w3.org/2000/svg">
<path d="M35.8259 18.9671V14.7522C35.8259 8.85134 31.1896 4.21497 25.2887 4.21497C19.3879 4.21497 14.7515 8.85134 14.7515 14.7522V18.9671C11.1689 18.9671 8.4292 21.7067 8.4292 25.2894V40.0415C8.4292 43.6241 11.1689 46.3638 14.7515 46.3638H35.8259C39.4086 46.3638 42.1483 43.6241 42.1483 40.0415V25.2894C42.1483 21.7067 39.4086 18.9671 35.8259 18.9671ZM18.9664 14.7522C18.9664 11.1695 21.7061 8.42985 25.2887 8.42985C28.8714 8.42985 31.6111 11.1695 31.6111 14.7522V18.9671H18.9664V14.7522ZM27.6069 32.6654L27.3962 32.8762V35.8266C27.3962 37.0911 26.5532 37.934 25.2887 37.934C24.0243 37.934 23.1813 37.0911 23.1813 35.8266V32.8762C21.9168 31.6117 21.7061 29.715 22.9705 28.4505C24.235 27.1861 26.1317 26.9753 27.3962 28.2398C28.6606 29.2935 28.8714 31.401 27.6069 32.6654Z" fill="black"/>
</svg>
