<svg width="51" height="51" viewBox="0 0 51 51" fill="none" xmlns="http://www.w3.org/2000/svg">
<path d="M18.9673 23.2416L23.1825 27.4558L31.6119 19.0264" stroke="#344054" stroke-width="0.496736" stroke-linecap="round" stroke-linejoin="round"/>
<path d="M25.2896 44.3157L27.1438 43.5145C31.0316 41.8462 34.3888 39.1459 36.8517 35.7061C39.3147 32.2663 40.7896 28.2182 41.1166 24.0003L42.023 12.3672C42.0378 11.8854 41.8867 11.4132 41.595 11.0295C41.3034 10.6457 40.8888 10.3738 40.4207 10.2591L25.2896 6.38171L10.1585 10.1751C9.6905 10.2898 9.27607 10.5616 8.98442 10.9451C8.69278 11.3286 8.54159 11.8006 8.55613 12.2822L9.4625 23.9153C9.78933 28.1334 11.2641 32.1818 13.7271 35.6217C16.1901 39.0617 19.5474 41.7621 23.4353 43.4305L25.2896 44.3157Z" stroke="#306CFE" stroke-width="0.496736" stroke-linecap="round" stroke-linejoin="round"/>
</svg>
