<svg width="63" height="50" viewBox="0 0 63 50" fill="none" xmlns="http://www.w3.org/2000/svg">
<g clip-path="url(#clip0_31_42)">
<path d="M60.5397 34.1506H58.9874V23.6629C58.9874 22.4307 58.4926 21.2471 57.6194 20.3739L47.9272 10.6818C47.0541 9.80859 45.8704 9.31379 44.6383 9.31379H40.3598V4.6569C40.3598 2.0859 38.2739 0 35.7029 0H10.8661C8.2951 0 6.2092 2.0859 6.2092 4.6569V9.31379H0.776149C0.349267 9.31379 0 9.66306 0 10.0899V11.6422C0 12.0691 0.349267 12.4184 0.776149 12.4184H27.1652C27.5921 12.4184 27.9414 12.7677 27.9414 13.1945V14.7468C27.9414 15.1737 27.5921 15.523 27.1652 15.523H3.88075C3.45386 15.523 3.1046 15.8723 3.1046 16.2991V17.8514C3.1046 18.2783 3.45386 18.6276 3.88075 18.6276H24.0606C24.4875 18.6276 24.8368 18.9769 24.8368 19.4037V20.956C24.8368 21.3829 24.4875 21.7322 24.0606 21.7322H0.776149C0.349267 21.7322 0 22.0814 0 22.5083V24.0606C0 24.4875 0.349267 24.8368 0.776149 24.8368H20.956C21.3829 24.8368 21.7322 25.186 21.7322 25.6129V27.1652C21.7322 27.5921 21.3829 27.9414 20.956 27.9414H6.2092V40.3598C6.2092 45.5018 10.381 49.6736 15.523 49.6736C20.665 49.6736 24.8368 45.5018 24.8368 40.3598H37.2552C37.2552 45.5018 41.427 49.6736 46.569 49.6736C51.711 49.6736 55.8828 45.5018 55.8828 40.3598H60.5397C61.3934 40.3598 62.0919 39.6612 62.0919 38.8075V35.7029C62.0919 34.8491 61.3934 34.1506 60.5397 34.1506ZM15.523 45.0167C12.952 45.0167 10.8661 42.9308 10.8661 40.3598C10.8661 37.7888 12.952 35.7029 15.523 35.7029C18.094 35.7029 20.1799 37.7888 20.1799 40.3598C20.1799 42.9308 18.094 45.0167 15.523 45.0167ZM46.569 45.0167C43.998 45.0167 41.9121 42.9308 41.9121 40.3598C41.9121 37.7888 43.998 35.7029 46.569 35.7029C49.14 35.7029 51.2259 37.7888 51.2259 40.3598C51.2259 42.9308 49.14 45.0167 46.569 45.0167ZM54.3305 24.8368H40.3598V13.9707H44.6383L54.3305 23.6629V24.8368Z" fill="black"/>
</g>
<defs>
<clipPath id="clip0_31_42">
<rect width="62.092" height="49.6736" fill="white"/>
</clipPath>
</defs>
</svg>
