<svg width="50" height="51" viewBox="0 0 50 51" fill="none" xmlns="http://www.w3.org/2000/svg">
<path d="M43.465 25.8354C43.465 14.4725 34.648 6.75244 24.8375 6.75244C15.1304 6.75244 6.20987 14.307 6.20987 25.9596C4.96803 26.6633 4.14014 27.9879 4.14014 29.5195V33.659C4.14014 35.9357 6.0029 37.7984 8.2796 37.7984C9.41795 37.7984 10.3493 36.867 10.3493 35.7287V25.7733C10.3493 17.8462 16.455 10.9126 24.3821 10.6849C26.3222 10.6259 28.2543 10.957 30.0641 11.6584C31.8739 12.3599 33.5245 13.4175 34.918 14.7685C36.3115 16.1196 37.4197 17.7367 38.1768 19.5239C38.9339 21.3111 39.3245 23.2321 39.3256 25.1731V39.8681H24.8375C23.6991 39.8681 22.7677 40.7995 22.7677 41.9379C22.7677 43.0762 23.6991 44.0076 24.8375 44.0076H39.3256C41.6023 44.0076 43.465 42.1449 43.465 39.8681V37.3431C44.6862 36.7015 45.5348 35.4389 45.5348 33.9487V29.1883C45.5348 27.7395 44.6862 26.477 43.465 25.8354Z" fill="black"/>
<path d="M18.6278 29.5195C19.7709 29.5195 20.6976 28.5928 20.6976 27.4497C20.6976 26.3067 19.7709 25.38 18.6278 25.38C17.4848 25.38 16.5581 26.3067 16.5581 27.4497C16.5581 28.5928 17.4848 29.5195 18.6278 29.5195Z" fill="black"/>
<path d="M31.0463 29.5195C32.1894 29.5195 33.116 28.5928 33.116 27.4497C33.116 26.3067 32.1894 25.38 31.0463 25.38C29.9032 25.38 28.9766 26.3067 28.9766 27.4497C28.9766 28.5928 29.9032 29.5195 31.0463 29.5195Z" fill="black"/>
<path d="M37.2548 23.3723C36.7613 20.4625 35.2542 17.8212 33.0004 15.9158C30.7465 14.0105 27.8912 12.964 24.9399 12.9615C18.6686 12.9615 11.9213 18.1566 12.4594 26.3113C15.0122 25.2677 17.2668 23.6082 19.022 21.481C20.7772 19.3538 21.9784 16.8251 22.5183 14.1206C25.2297 19.564 30.7972 23.3102 37.2548 23.3723Z" fill="black"/>
</svg>
